<svg width="33" height="32" viewBox="0 0 24 24" fill="none" xmlns="http://www.w3.org/2000/svg"><g id="SVGRepo_bgCarrier" stroke-width="0"></g><g id="SVGRepo_tracerCarrier" stroke-linecap="round" stroke-linejoin="round"></g><g id="SVGRepo_iconCarrier"> <path d="M21 12C21 16.9706 16.9706 21 12 21M21 12C21 7.02944 16.9706 3 12 3M21 12H3C3 16.9706 7.02944 21 12 21M12 21C12 21 16 18 16 12M12 21C12 21 8 18 8 12C8 6 12 3 12 3M12 3C9.3345 3 6.93964 4.15875 5.29168 6M12 3C12 3 14.2222 4.66667 15.354 8" 
stroke="#213a84" stroke-width="1.5" stroke-linecap="round"></path> </g></svg>