<svg fill="#213a84" height="30" width="31" version="1.1" id="Layer_1" xmlns="http://www.w3.org/2000/svg" xmlns:xlink="http://www.w3.org/1999/xlink" viewBox="0 0 511.999 511.999"
 xml:space="preserve" stroke="#213a84"><g id="SVGRepo_bgCarrier" stroke-width="0"></g>
 <g id="SVGRepo_tracerCarrier" stroke-linecap="round" stroke-linejoin="round"></g>
 <g id="SVGRepo_iconCarrier"> <g> <g> <g> 
 <path d="M180.651,108.105c-40.816,0-74.023,33.207-74.023,74.024s33.207,74.024,74.023,74.024 c40.817,0,74.024-33.207,74.024-74.024S221.469,108.105,180.651,108.105z M180.651,235.755 c-29.569,0-53.624-24.056-53.624-53.625s24.056-53.625,53.624-53.625c29.568,0,53.625,24.056,53.625,53.625 C234.277,211.699,210.22,235.755,180.651,235.755z"></path> <path d="M351.105,132.183h-29.305c-1.751-4.955-3.765-9.814-6.023-14.544l20.722-20.721c3.983-3.984,3.983-10.442,0-14.425 l-56.211-56.21c-3.983-3.982-10.441-3.982-14.424,0l-20.722,20.721c-4.731-2.259-9.59-4.27-14.544-6.023V11.677 c0-5.633-4.566-10.199-10.199-10.199h-79.494c-5.633,0-10.199,4.566-10.199,10.199v29.305c-4.954,1.751-9.813,3.765-14.544,6.023 L95.44,26.284c-3.983-3.983-10.441-3.983-14.424,0l-56.21,56.21c-3.983,3.984-3.983,10.442,0,14.425l20.721,20.721 c-2.259,4.73-4.271,9.59-6.023,14.544H10.199C4.566,132.183,0,136.749,0,142.382v79.494c0,5.633,4.566,10.199,10.199,10.199 h29.306c1.751,4.954,3.764,9.814,6.023,14.544L24.807,267.34c-1.912,1.912-2.987,4.507-2.987,7.212s1.075,5.3,2.987,7.212 l56.21,56.211c1.912,1.912,4.507,2.987,7.212,2.987s5.299-1.075,7.212-2.987l20.721-20.722c4.731,2.259,9.591,4.271,14.544,6.023 v29.305c0,5.633,4.566,10.199,10.199,10.199h79.494c5.633,0,10.199-4.566,10.199-10.199v-29.305 c4.955-1.752,9.813-3.765,14.544-6.023l20.721,20.722c1.912,1.912,4.507,2.987,7.212,2.987c2.705,0,5.3-1.075,7.212-2.987 l56.21-56.211c1.912-1.912,2.987-4.507,2.987-7.212s-1.075-5.299-2.987-7.212l-20.721-20.721c2.259-4.73,4.271-9.59,6.023-14.544 h29.306c5.633,0,10.199-4.566,10.199-10.199v-79.494C361.304,136.749,356.738,132.183,351.105,132.183z M340.905,211.676h-26.513 c-4.515,0-8.493,2.969-9.778,7.298c-2.55,8.593-5.999,16.92-10.251,24.752c-2.156,3.97-1.443,8.885,1.751,12.079l18.747,18.746 l-41.786,41.787l-18.747-18.747c-3.194-3.193-8.109-3.907-12.079-1.751c-7.834,4.253-16.162,7.701-24.752,10.251 c-4.329,1.285-7.298,5.263-7.298,9.778v26.513h-59.095v-26.513c0-4.515-2.969-8.493-7.298-9.778 c-8.59-2.549-16.917-5.998-24.752-10.251c-3.969-2.155-8.883-1.442-12.079,1.751l-18.747,18.747l-41.786-41.787l18.747-18.746 c3.194-3.194,3.906-8.108,1.751-12.079c-4.253-7.834-7.702-16.162-10.251-24.751c-1.284-4.329-5.263-7.298-9.778-7.298H20.398 v-59.095h26.513c4.515,0,8.494-2.969,9.778-7.299c2.549-8.591,5.998-16.918,10.251-24.751c2.155-3.97,1.443-8.885-1.751-12.079 L46.442,89.706l41.786-41.786l18.748,18.747c3.194,3.194,8.108,3.907,12.078,1.751c7.835-4.253,16.163-7.702,24.752-10.251 c4.329-1.285,7.297-5.263,7.297-9.778V21.876h59.095v26.513c0,4.515,2.969,8.493,7.298,9.778 c8.591,2.549,16.918,5.998,24.752,10.251c3.971,2.156,8.885,1.442,12.078-1.751l18.748-18.747l41.786,41.786l-18.747,18.747 c-3.194,3.194-3.906,8.109-1.751,12.079c4.252,7.832,7.701,16.159,10.251,24.751c1.285,4.329,5.263,7.298,9.778,7.298h26.513 V211.676z"></path> </g> </g> </g> <g> <g> <path d="M271.987,203.528c-5.315-1.875-11.139,0.914-13.011,6.226c-11.688,33.139-43.164,55.404-78.325,55.404 c-5.633,0-10.199,4.566-10.199,10.199c0,5.633,4.566,10.199,10.199,10.199c43.795,0,83.002-27.737,97.561-69.017 C280.086,211.226,277.299,205.401,271.987,203.528z"></path> </g> </g> <g> <g> <path d="M273.878,171.931c-5.633,0-10.199,4.566-10.199,10.199c0,1.32-0.031,2.651-0.092,3.953 c-0.263,5.627,4.084,10.402,9.711,10.665c0.163,0.008,0.324,0.011,0.485,0.011c5.414,0,9.925-4.258,10.18-9.722 c0.076-1.62,0.114-3.271,0.114-4.908C284.077,176.497,279.511,171.931,273.878,171.931z"></path> </g> </g> <g> <g> <g> <path d="M511.172,411.093c-1.067-2.486-3.078-4.446-5.59-5.448l-13.045-5.208c0.008-1.171-0.006-2.341-0.044-3.51l12.906-5.541 c2.486-1.067,4.446-3.078,5.448-5.59c1.004-2.512,0.967-5.32-0.1-7.805l-18.209-42.413c-2.221-5.175-8.22-7.572-13.396-5.348 l-12.906,5.541c-0.822-0.833-1.66-1.649-2.514-2.45l5.209-13.045c2.089-5.231-0.459-11.165-5.69-13.254l-42.866-17.116 c-5.229-2.087-11.165,0.459-13.254,5.69l-5.209,13.045c-1.167-0.009-2.341,0.007-3.51,0.044l-5.541-12.906 c-1.067-2.486-3.078-4.446-5.59-5.448c-2.512-1.004-5.32-0.968-7.805,0.1l-42.413,18.209c-5.176,2.222-7.571,8.22-5.348,13.396 l5.541,12.906c-0.832,0.822-1.649,1.66-2.45,2.514l-13.044-5.209c-2.512-1.003-5.32-0.968-7.805,0.1 c-2.486,1.066-4.446,3.077-5.448,5.589L291.382,380.8c-2.088,5.231,0.459,11.165,5.69,13.254l13.045,5.209 c-0.008,1.171,0.006,2.341,0.044,3.51l-12.906,5.541c-2.486,1.067-4.446,3.078-5.448,5.59c-1.004,2.512-0.967,5.32,0.1,7.805 l18.209,42.413c1.067,2.486,3.078,4.446,5.59,5.448c2.511,1.004,5.32,0.968,7.805-0.1l12.906-5.541 c0.822,0.832,1.659,1.649,2.514,2.45l-5.209,13.045c-2.088,5.231,0.459,11.165,5.69,13.254l42.866,17.116 c1.215,0.485,2.499,0.727,3.782,0.727c1.37,0,2.741-0.276,4.023-0.827c2.486-1.067,4.446-3.078,5.448-5.59l5.208-13.044 c1.169,0.005,2.341-0.007,3.51-0.045l5.541,12.906c2.221,5.176,8.217,7.57,13.396,5.348l42.413-18.209 c2.486-1.067,4.446-3.078,5.448-5.59c1.004-2.512,0.967-5.32-0.1-7.805l-5.541-12.906c0.832-0.822,1.649-1.659,2.45-2.514 l13.045,5.209c5.229,2.087,11.165-0.459,13.254-5.69l17.116-42.866C512.275,416.386,512.239,413.578,511.172,411.093z M478.995,444.728l-10.325-4.123c-4.194-1.675-8.989-0.393-11.786,3.152c-3.04,3.85-6.484,7.383-10.236,10.502 c-3.473,2.887-4.633,7.717-2.852,11.867l4.386,10.216l-23.67,10.161l-4.386-10.216c-1.782-4.15-6.079-6.633-10.567-6.105 c-4.845,0.572-9.778,0.634-14.663,0.187c-4.497-0.41-8.729,2.182-10.403,6.375l-4.122,10.325l-23.922-9.552l4.123-10.325 c1.674-4.193,0.393-8.988-3.152-11.786c-3.85-3.04-7.383-6.484-10.502-10.236c-2.887-3.473-7.716-4.635-11.867-2.852 l-10.216,4.386l-10.161-23.67l10.216-4.386c4.15-1.782,6.636-6.083,6.105-10.568c-0.572-4.844-0.635-9.777-0.188-14.662 c0.412-4.496-2.182-8.729-6.375-10.403l-10.325-4.122l9.552-23.922l10.325,4.122c4.195,1.674,8.99,0.392,11.787-3.152 c3.04-3.85,6.484-7.383,10.235-10.501c3.474-2.887,4.635-7.716,2.853-11.867l-4.386-10.216l23.67-10.161l4.386,10.216 c1.782,4.15,6.079,6.633,10.567,6.105c4.847-0.572,9.781-0.634,14.662-0.188c4.499,0.411,8.729-2.182,10.404-6.375l4.122-10.326 l23.922,9.552l-4.122,10.326c-1.674,4.193-0.392,8.989,3.152,11.786c3.85,3.04,7.383,6.484,10.501,10.235 c2.887,3.474,7.716,4.635,11.867,2.853l10.216-4.386l10.161,23.67l-10.216,4.386c-4.15,1.782-6.635,6.083-6.105,10.568 c0.572,4.844,0.635,9.776,0.188,14.661c-0.413,4.497,2.181,8.729,6.375,10.404l10.325,4.122L478.995,444.728z"></path> <path d="M418.853,355.96c-24.202-9.664-51.749,2.165-61.412,26.365c-9.663,24.2,2.164,51.749,26.364,61.412 c5.729,2.288,11.643,3.371,17.466,3.371c18.773,0,36.571-11.263,43.947-29.735C454.88,393.173,443.053,365.624,418.853,355.96z M426.273,409.81c-2.66,6.663-7.755,11.891-14.348,14.721c-6.593,2.83-13.892,2.924-20.557,0.263 c-13.755-5.492-20.477-21.151-14.985-34.905c5.493-13.755,21.152-20.476,34.905-14.985 C425.043,380.397,431.765,396.055,426.273,409.81z">
</path> </g> </g> </g> </g></svg>